<svg width="362" height="422" viewBox="0 0 362 422" fill="none" xmlns="http://www.w3.org/2000/svg">
<path d="M307.707 310.384V89.2906C307.707 61.1253 284.875 38.2933 256.709 38.2933H102.717C74.552 38.2933 51.72 61.1253 51.72 89.2906V310.384H307.707Z" fill="#C53DC6"/>
<path d="M120.925 189.496C123.592 201.496 131.592 217.495 140.925 220.161C194.535 238.439 251.485 237.788 307.707 238.557L307.707 89.2906C307.707 61.1253 284.875 38.2933 256.709 38.2933H102.717C87.5053 38.2933 73.8587 44.9613 64.516 55.524C108.664 82.392 107.131 141.839 120.925 189.496Z" fill="#D572D7"/>
<path d="M295.535 245.977C294.511 245.977 293.48 245.936 292.444 245.852L161.105 235.131C140.96 233.485 123.952 219.252 118.783 199.713L93.1773 102.929C88.6373 85.72 83.9413 67.9266 63.8787 62.536L6.768 50.7946C2.44134 49.9053 -0.34667 45.676 0.543996 41.348C1.43333 37.02 5.66934 34.2333 9.99067 35.1226L67.7493 47.0093C97.0027 54.708 103.733 80.22 108.648 98.848L108.976 100.093L134.251 195.621C137.689 208.62 149.004 218.088 162.407 219.184L293.747 229.905C304.189 230.759 313.785 224.047 316.571 213.951L340.767 126.243L173.055 112.465C169.427 112.171 166.004 113.588 163.655 116.363C161.305 119.139 160.469 122.751 161.361 126.276L168.847 155.88C171.321 165.664 179.729 172.917 189.772 173.929L268.84 181.897C272.877 182.304 276.565 179.9 277.832 176.056C278.651 173.565 278.297 170.879 276.86 168.685C275.421 166.492 273.099 165.095 270.487 164.853L204.087 158.712C199.688 158.305 196.452 154.409 196.859 150.009C197.265 145.611 201.14 142.372 205.561 142.78L271.961 148.921C279.453 149.615 286.116 153.621 290.241 159.915C294.365 166.207 295.381 173.916 293.028 181.061C289.395 192.092 278.775 198.983 267.236 197.816L188.168 189.848C171.452 188.164 157.453 176.089 153.335 159.803L145.849 130.199C143.675 121.603 145.715 112.792 151.444 106.025C157.173 99.2573 165.527 95.7973 174.364 96.5186L361.327 111.877L331.995 218.205C327.444 234.697 312.399 245.976 295.535 245.977Z" fill="#E6E1F0"/>
<path d="M179.815 265.685C179.815 277.713 170.064 287.464 158.036 287.464C146.009 287.464 136.259 277.713 136.259 265.685C136.259 253.657 146.009 243.908 158.036 243.908C170.064 243.908 179.815 253.657 179.815 265.685Z" fill="#E3DFF2"/>
<path d="M288.083 272.305C288.083 279.573 282.192 285.464 274.925 285.464C267.659 285.464 261.768 279.573 261.768 272.305C261.768 265.039 267.659 259.148 274.925 259.148C282.192 259.148 288.083 265.039 288.083 272.305Z" fill="#E5E0ED"/>
<path d="M156.925 72.1626C156.925 82.7173 148.369 91.2733 137.815 91.2733C127.26 91.2733 118.703 82.7173 118.703 72.1626C118.703 61.608 127.26 53.0506 137.815 53.0506C148.369 53.0506 156.925 61.608 156.925 72.1626Z" fill="#FF8084"/>
<path d="M192.369 26.3839C192.369 40.6519 180.804 52.2173 166.536 52.2173C152.269 52.2173 140.703 40.6519 140.703 26.3839C140.703 12.1173 152.269 0.550598 166.536 0.550598C180.804 0.550598 192.369 12.1173 192.369 26.3839Z" fill="#E6DEEF"/>
<path d="M186.111 65.7919C186.111 70.7826 182.065 74.8293 177.073 74.8293C172.083 74.8293 168.036 70.7826 168.036 65.7919C168.036 60.8013 172.083 56.7546 177.073 56.7546C182.065 56.7546 186.111 60.8013 186.111 65.7919Z" fill="#FFB320"/>
<path d="M242.185 39.496C242.185 51.032 232.832 60.384 221.296 60.384C209.759 60.384 200.408 51.032 200.408 39.496C200.408 27.9586 209.759 18.6067 221.296 18.6067C232.832 18.6067 242.185 27.9586 242.185 39.496Z" fill="#FDB3EB"/>
<path d="M262.259 78.7173C262.259 88.1066 254.647 95.7173 245.259 95.7173C235.869 95.7173 228.259 88.1066 228.259 78.7173C228.259 69.3293 235.869 61.7173 245.259 61.7173C254.647 61.7173 262.259 69.3293 262.259 78.7173Z" fill="#FF8084"/>
<path d="M334.425 86.1627C334.425 95.552 326.813 103.163 317.425 103.163C308.036 103.163 300.425 95.552 300.425 86.1627C300.425 76.7746 308.036 69.1627 317.425 69.1627C326.813 69.1627 334.425 76.7746 334.425 86.1627Z" fill="#FEB324"/>
<path d="M216.259 81.7173C216.259 87.9773 211.185 93.0506 204.925 93.0506C198.667 93.0506 193.592 87.9773 193.592 81.7173C193.592 75.4586 198.667 70.3839 204.925 70.3839C211.185 70.3839 216.259 75.4586 216.259 81.7173Z" fill="#FFBE43"/>
<path d="M284.925 40.6067C284.925 48.4613 278.557 54.8293 270.703 54.8293C262.849 54.8293 256.48 48.4613 256.48 40.6067C256.48 32.752 262.849 26.384 270.703 26.384C278.557 26.384 284.925 32.752 284.925 40.6067Z" fill="#FF71B6"/>
<path d="M290.925 86.1626C290.925 92.4213 285.852 97.496 279.592 97.496C273.333 97.496 268.259 92.4213 268.259 86.1626C268.259 79.904 273.333 74.8293 279.592 74.8293C285.852 74.8293 290.925 79.904 290.925 86.1626Z" fill="#6E0075"/>
<path d="M304.036 60.384C304.036 65.6613 299.757 69.94 294.48 69.94C289.203 69.94 284.925 65.6613 284.925 60.384C284.925 55.1066 289.203 50.8293 294.48 50.8293C299.757 50.8293 304.036 55.1066 304.036 60.384Z" fill="#EEDAEF"/>
<path d="M57.7512 376V322.737H68.5944V366.952H95.5556V376H57.7512Z" fill="white"/>
<path d="M132.626 376V322.297H143.469V376H132.626Z" fill="white"/>
<path d="M180.722 358.526L191.273 357.501C191.907 361.042 193.19 363.643 195.119 365.303C197.073 366.964 199.698 367.794 202.995 367.794C206.487 367.794 209.112 367.062 210.871 365.596C212.653 364.107 213.545 362.373 213.545 360.395C213.545 359.125 213.166 358.05 212.409 357.171C211.677 356.267 210.382 355.486 208.526 354.827C207.256 354.387 204.362 353.606 199.844 352.482C194.032 351.041 189.954 349.271 187.609 347.17C184.312 344.215 182.664 340.613 182.664 336.364C182.664 333.629 183.433 331.077 184.972 328.708C186.535 326.315 188.769 324.495 191.675 323.25C194.606 322.004 198.135 321.381 202.262 321.381C209.002 321.381 214.07 322.859 217.465 325.814C220.884 328.769 222.679 332.713 222.849 337.646L212.006 338.122C211.542 335.363 210.541 333.385 209.002 332.188C207.488 330.967 205.205 330.356 202.152 330.356C199.002 330.356 196.535 331.003 194.753 332.298C193.605 333.128 193.031 334.239 193.031 335.631C193.031 336.901 193.568 337.988 194.643 338.892C196.01 340.039 199.332 341.236 204.607 342.482C209.882 343.727 213.777 345.021 216.292 346.365C218.832 347.683 220.81 349.503 222.227 351.823C223.668 354.118 224.388 356.963 224.388 360.358C224.388 363.435 223.533 366.317 221.824 369.003C220.114 371.69 217.697 373.692 214.571 375.011C211.445 376.305 207.549 376.952 202.885 376.952C196.096 376.952 190.882 375.389 187.243 372.263C183.604 369.113 181.431 364.534 180.722 358.526Z" fill="white"/>
<path d="M275.232 376V331.382H259.297V322.297H301.973V331.382H286.075V376H275.232Z" fill="white"/>
<path d="M55.2217 421V395.946H62.9634C64.7863 395.946 66.1307 396.106 66.9966 396.425C68.1815 396.858 69.1271 397.661 69.8335 398.834C70.5399 400.008 70.8931 401.449 70.8931 403.158C70.8931 405.414 70.3177 407.254 69.167 408.678C68.0163 410.102 66.0282 410.814 63.2026 410.814H57.939V421H55.2217ZM57.939 407.858H63.2539C64.9287 407.858 66.1535 407.482 66.9282 406.73C67.703 405.967 68.0903 404.822 68.0903 403.295C68.0903 402.304 67.8966 401.455 67.5093 400.749C67.1333 400.042 66.6719 399.558 66.125 399.296C65.5895 399.034 64.6154 398.903 63.2026 398.903H57.939V407.858Z" fill="white"/>
<path d="M87.4702 421V395.946H96.5791C98.4818 395.946 99.8831 396.18 100.783 396.647C101.695 397.114 102.441 397.895 103.022 398.988C103.603 400.071 103.894 401.33 103.894 402.765C103.894 404.656 103.398 406.189 102.407 407.362C101.427 408.536 99.9971 409.282 98.1172 409.601C98.8805 410.057 99.4616 410.518 99.8604 410.985C100.669 411.942 101.381 413.008 101.997 414.181L105.585 421H102.167L99.4331 415.788C98.3735 413.748 97.5703 412.375 97.0234 411.669C96.488 410.963 95.9639 410.49 95.4512 410.25C94.9499 410 94.2435 409.874 93.332 409.874H90.1875V421H87.4702ZM90.1875 407.003H96.0322C97.3083 407.003 98.2767 406.85 98.9375 406.542C99.5983 406.234 100.122 405.75 100.51 405.089C100.897 404.429 101.091 403.659 101.091 402.782C101.091 401.518 100.721 400.526 99.98 399.809C99.2394 399.079 98.14 398.715 96.6816 398.715H90.1875V407.003Z" fill="white"/>
<path d="M120.556 408.798C120.556 404.525 121.496 401.244 123.376 398.954C125.256 396.653 127.597 395.502 130.4 395.502C132.211 395.502 133.863 396.015 135.356 397.04C136.848 398.065 138.028 399.558 138.894 401.518C139.771 403.466 140.209 405.79 140.209 408.49C140.209 412.204 139.366 415.229 137.68 417.565C135.823 420.14 133.391 421.427 130.383 421.427C127.352 421.427 124.914 420.106 123.068 417.462C121.394 415.07 120.556 412.182 120.556 408.798ZM123.359 408.849C123.359 411.937 124.037 414.335 125.393 416.044C126.76 417.742 128.417 418.59 130.366 418.59C132.36 418.59 134.029 417.73 135.373 416.01C136.729 414.289 137.407 411.76 137.407 408.422C137.407 406.269 137.059 404.343 136.364 402.645C135.829 401.347 135.02 400.31 133.938 399.535C132.867 398.749 131.693 398.356 130.417 398.356C128.366 398.356 126.674 399.21 125.341 400.919C124.02 402.628 123.359 405.272 123.359 408.849Z" fill="white"/>
<path d="M156.735 421V395.946H163.828C165.582 395.946 166.915 396.1 167.827 396.408C169.023 396.806 170.06 397.536 170.937 398.595C171.814 399.655 172.498 400.993 172.988 402.611C173.478 404.218 173.723 406.126 173.723 408.336C173.723 411.173 173.307 413.583 172.475 415.565C171.643 417.536 170.572 418.938 169.262 419.77C167.963 420.59 166.26 421 164.152 421H156.735ZM159.453 418.043H163.828C165.594 418.043 166.932 417.759 167.844 417.189C168.755 416.608 169.456 415.679 169.946 414.403C170.595 412.706 170.92 410.672 170.92 408.302C170.92 405.762 170.572 403.768 169.877 402.321C169.194 400.862 168.311 399.888 167.229 399.398C166.499 399.068 165.343 398.903 163.759 398.903H159.453V418.043Z" fill="white"/>
<path d="M204.057 395.946H206.792V410.421C206.792 412.848 206.552 414.842 206.074 416.403C205.607 417.952 204.746 419.177 203.493 420.077C202.251 420.977 200.668 421.427 198.742 421.427C196.031 421.427 193.997 420.618 192.641 419C191.297 417.383 190.625 414.523 190.625 410.421V395.946H193.342V410.404C193.342 412.672 193.518 414.312 193.872 415.326C194.225 416.34 194.8 417.115 195.598 417.65C196.407 418.174 197.386 418.436 198.537 418.436C200.474 418.436 201.875 417.89 202.741 416.796C203.618 415.702 204.057 413.572 204.057 410.404V395.946Z" fill="white"/>
<path d="M239.057 412.216L241.792 413.053C241.188 415.867 240.128 417.969 238.613 419.359C237.109 420.738 235.275 421.427 233.11 421.427C231.207 421.427 229.578 420.966 228.222 420.043C226.878 419.109 225.773 417.616 224.907 415.565C224.052 413.515 223.625 411.094 223.625 408.302C223.625 405.545 224.052 403.215 224.907 401.312C225.773 399.398 226.94 397.957 228.41 396.989C229.88 396.009 231.521 395.519 233.332 395.519C235.314 395.519 237.018 396.14 238.442 397.382C239.866 398.612 240.863 400.424 241.433 402.816L238.767 403.585C237.855 400.099 236.027 398.356 233.281 398.356C231.914 398.356 230.729 398.709 229.726 399.415C228.723 400.11 227.92 401.199 227.316 402.68C226.724 404.161 226.428 406.035 226.428 408.302C226.428 411.732 227.032 414.306 228.239 416.027C229.447 417.736 231.053 418.59 233.059 418.59C234.54 418.59 235.816 418.066 236.887 417.018C237.969 415.958 238.693 414.358 239.057 412.216Z" fill="white"/>
<path d="M263.581 421V398.903H256.813V395.946H273.1V398.903H266.298V421H263.581Z" fill="white"/>
<path d="M288.054 412.951L290.617 412.677C290.754 414.056 291.062 415.132 291.54 415.907C292.03 416.671 292.725 417.286 293.625 417.753C294.525 418.22 295.539 418.454 296.667 418.454C298.285 418.454 299.538 418.061 300.427 417.274C301.327 416.477 301.777 415.446 301.777 414.181C301.777 413.441 301.612 412.797 301.281 412.25C300.962 411.692 300.472 411.236 299.812 410.883C299.162 410.53 297.749 410.034 295.573 409.396C293.636 408.826 292.258 408.251 291.437 407.67C290.617 407.089 289.979 406.354 289.523 405.465C289.068 404.565 288.84 403.551 288.84 402.423C288.84 400.395 289.495 398.738 290.805 397.45C292.115 396.163 293.881 395.519 296.103 395.519C297.63 395.519 298.963 395.821 300.102 396.425C301.253 397.029 302.141 397.895 302.768 399.022C303.406 400.15 303.748 401.478 303.793 403.004L301.179 403.244C301.042 401.614 300.552 400.407 299.709 399.621C298.877 398.834 297.704 398.441 296.188 398.441C294.65 398.441 293.477 398.789 292.668 399.484C291.859 400.167 291.455 401.056 291.455 402.15C291.455 403.164 291.751 403.95 292.343 404.508C292.936 405.067 294.269 405.631 296.342 406.2C298.37 406.758 299.794 407.243 300.615 407.653C301.868 408.291 302.814 409.134 303.452 410.182C304.09 411.219 304.409 412.461 304.409 413.908C304.409 415.343 304.073 416.653 303.4 417.838C302.728 419.012 301.811 419.906 300.649 420.521C299.498 421.137 298.108 421.444 296.479 421.444C293.938 421.444 291.91 420.681 290.395 419.154C288.891 417.628 288.111 415.56 288.054 412.951Z" fill="white"/>
</svg>
